<?xml version="1.0" standalone="no"?>
<!DOCTYPE svg PUBLIC "-//W3C//DTD SVG 1.1//EN" "http://www.w3.org/Graphics/SVG/1.1/DTD/svg11.dtd" >
<svg xmlns="http://www.w3.org/2000/svg" xmlns:xlink="http://www.w3.org/1999/xlink" version="1.1">
<metadata></metadata>
<defs>
<font id="public_sansthin_italic" horiz-adv-x="1325" >
<font-face units-per-em="2048" ascent="1597" descent="-451" />
<missing-glyph horiz-adv-x="520" />
<glyph unicode="&#xfb01;" horiz-adv-x="1269" d="M158 989l10 70h231l25 176q19 125 77.5 185.5t166.5 60.5h141l-8 -70h-162q-66 0 -97 -39.5t-42 -120.5l-27 -192h268l-10 -70h-268l-137 -989h-74l139 989h-233zM909 0l148 1059h73l-147 -1059h-74zM1085 1325l19 123h90l-18 -123h-91z" />
<glyph unicode="&#xfb02;" horiz-adv-x="1298" d="M158 989l10 70h231l25 176q19 125 77.5 185.5t166.5 60.5h141l-8 -70h-162q-66 0 -97 -39.5t-42 -120.5l-27 -192h268l-10 -70h-268l-137 -989h-74l139 989h-233zM924 248l180 1274h74l-181 -1274q-13 -95 13 -142t71 -47h60l-8 -59q-33 -8 -64 -8q-92 0 -126.5 70 t-18.5 186z" />
<glyph horiz-adv-x="55" />
<glyph horiz-adv-x="55" />
<glyph horiz-adv-x="682" />
<glyph unicode="&#xd;" horiz-adv-x="468" />
<glyph unicode=" "  horiz-adv-x="520" />
<glyph unicode="&#x09;" horiz-adv-x="520" />
<glyph unicode="&#xa0;" horiz-adv-x="520" />
<glyph unicode="!" horiz-adv-x="442" d="M90 0l21 158h114l-22 -158h-113zM158 295l149 1186h96l-186 -1186h-59z" />
<glyph unicode="&#x22;" horiz-adv-x="747" d="M276 1098l17 383h141l-94 -383h-64zM555 1098l16 383h142l-95 -383h-63z" />
<glyph unicode="#" horiz-adv-x="1159" d="M98 500v75h258l54 345h-246v75h256l76 488l75 -10l-73 -478h327l76 488l76 -10l-74 -478h219v-75h-231l-53 -345h219v-75h-230l-77 -502l-76 12l76 490h-328l-78 -502l-76 12l76 490h-246zM432 575h330l53 345h-330z" />
<glyph unicode="$" horiz-adv-x="1218" d="M117 342l80 18q17 -147 110.5 -220.5t247.5 -73.5q93 0 182.5 34t155.5 102.5t78 155.5q17 115 -32.5 191.5t-172.5 118.5l-236 82q-147 52 -215.5 133t-50.5 207q24 168 150.5 281.5t312.5 125.5l31 215h86l-31 -215q107 -10 182.5 -67.5t107.5 -141t27 -182.5l-75 -16 q-12 325 -301 325q-63 0 -128 -19.5t-124.5 -57t-102 -101.5t-53.5 -145q-13 -94 40.5 -150.5t207.5 -114.5l221 -82q145 -54 200.5 -153.5t37.5 -229.5q-22 -156 -153.5 -263t-315.5 -117l-31 -215h-84l31 215q-171 11 -274 106t-109 254z" />
<glyph unicode="%" horiz-adv-x="1656" d="M201 1079q28 203 126.5 313.5t233.5 110.5q136 0 202.5 -110t37.5 -314q-30 -206 -126.5 -316t-232.5 -110q-135 0 -202 110.5t-39 315.5zM221 -8l1254 1505h63l-1249 -1505h-68zM264 1079q-22 -160 28.5 -263t156.5 -103t185 102.5t101 263.5q23 160 -27.5 262.5 t-156.5 102.5q-104 0 -183.5 -103t-103.5 -262zM920 408q29 202 126.5 312.5t233.5 110.5q134 0 200.5 -110.5t37.5 -312.5q-28 -207 -125.5 -317.5t-233.5 -110.5q-135 0 -202 111t-37 317zM983 406q-22 -155 30 -260t154 -105t183.5 105t103.5 260t-30 259.5t-154 104.5 t-183.5 -105t-103.5 -259z" />
<glyph unicode="&#x26;" horiz-adv-x="1206" d="M59 373q20 138 109.5 245t257.5 197q-149 196 -123 383q19 130 115.5 217.5t228.5 87.5q85 0 154.5 -36t107 -108t23.5 -165q-29 -220 -400 -408l316 -487q56 52 120.5 172t90.5 283h63q-29 -170 -86 -286.5t-151 -223.5l155 -244h-90l-123 184q-218 -194 -438 -194 q-174 0 -263.5 105t-66.5 278zM135 365q-19 -132 59.5 -215.5t213.5 -83.5q193 0 385 176l-332 514q-138 -75 -223 -173.5t-103 -217.5zM381 1200q-12 -88 22.5 -175.5t73.5 -141.5l23 -35q102 57 171 105.5t107 91t55 77.5t23 76q9 61 -6.5 106.5t-49.5 71t-75.5 37.5 t-89.5 12q-104 0 -172.5 -66t-81.5 -159z" />
<glyph unicode="'" horiz-adv-x="468" d="M281 1098l16 383h141l-94 -383h-63z" />
<glyph unicode="(" horiz-adv-x="530" d="M184.5 228.5q-31.5 210.5 1.5 457.5q34 240 140 475t258 436h45q-292 -476 -353 -913q-60 -428 76 -897h-45q-91 231 -122.5 441.5z" />
<glyph unicode=")" horiz-adv-x="550" d="M-53 -217q132 214 226 449.5t126 463.5q60 428 -76 897h45q91 -231 122.5 -441.5t-1.5 -457.5q-34 -241 -140 -475.5t-257 -435.5h-45z" />
<glyph unicode="*" horiz-adv-x="643" d="M152 1241l22 66l229 -84l-14 258h84l-10 -258l231 96l21 -64l-234 -81l170 -216l-65 -49l-150 238l-157 -246l-66 43l176 227z" />
<glyph unicode="+" horiz-adv-x="1003" d="M158 705l10 75h334l51 365h70l-52 -363h334l-10 -75h-334l-49 -363h-70l50 361h-334z" />
<glyph unicode="," horiz-adv-x="405" d="M-25 -227l134 227h-68l22 164h156l-18 -139l-166 -252h-60z" />
<glyph unicode="-" horiz-adv-x="710" d="M129 489l10 80l443 2l-11 -79z" />
<glyph unicode="." horiz-adv-x="362" d="M49 0l23 158h114l-22 -158h-115z" />
<glyph unicode="/" horiz-adv-x="606" d="M-61 -121l692 1602h78l-693 -1602h-77z" />
<glyph unicode="0" horiz-adv-x="1120" d="M141 733q54 378 201.5 573t353.5 195t299 -194t41 -570q-52 -374 -199.5 -565.5t-355.5 -191.5t-300.5 190t-39.5 563zM227 737q-48 -344 23.5 -509t245.5 -165q355 0 452 674q94 680 -264 680q-173 0 -290 -166.5t-167 -513.5z" />
<glyph unicode="1" horiz-adv-x="753" d="M205 1247l10 80q126 0 193 16t92.5 47t34.5 91h65l-209 -1481h-80l176 1247h-282z" />
<glyph unicode="2" horiz-adv-x="1103" d="M82 0l12 84l6 45q12 86 47.5 159t85 126.5t111 100.5t127.5 86.5t132 78.5t127 82t110 91.5t82.5 113.5t44.5 141q20 138 -58.5 222.5t-228.5 84.5q-158 0 -264 -96t-133 -246h-84q21 117 85 212.5t172.5 155.5t243.5 60q182 0 277 -108.5t70 -286.5q-12 -86 -47.5 -159 t-85 -126.5t-110.5 -100t-127 -85.5t-131.5 -77.5t-126 -81.5t-109.5 -91.5t-83 -113.5t-45 -142l-6 -45h742l-13 -84h-823z" />
<glyph unicode="3" horiz-adv-x="1138" d="M84 393h82q-2 -151 83.5 -240.5t237.5 -89.5q175 0 295 90t142 238q16 112 -31.5 191.5t-136.5 117t-207 37.5h-115l10 84h115q157 0 283.5 95t144.5 219q7 53 -8 102.5t-51 90t-100 65t-148 24.5q-85 0 -166 -37t-145 -117.5t-80 -189.5h-84q18 125 90.5 223.5 t175.5 151.5t217 53q196 0 300 -100.5t81 -265.5q-15 -113 -98.5 -206t-220.5 -143q147 -45 213 -147t45 -242q-26 -189 -175 -304.5t-366 -112.5q-181 3 -291 117t-92 296z" />
<glyph unicode="4" horiz-adv-x="1159" d="M88 428l14 100l783 953h84l-135 -969h241l-12 -84h-242l-59 -428h-78l59 428h-655zM180 512h568l118 831z" />
<glyph unicode="5" horiz-adv-x="1198" d="M102 389h86q22 -151 116.5 -240.5t238.5 -89.5q171 0 288 112t146 312q25 181 -65.5 291.5t-235.5 110.5q-116 0 -202 -38t-181 -155h-92l172 789h751l-12 -82h-672l-129 -600q134 166 377 166q84 0 157 -31t127.5 -89t78.5 -151.5t8 -208.5q-32 -227 -178.5 -366 t-352.5 -139q-177 0 -295 112.5t-131 296.5z" />
<glyph unicode="6" horiz-adv-x="1120" d="M143 741q51 359 206 568t396 209q151 0 249 -91t108 -251h-78q-12 119 -88.5 190.5t-200.5 71.5q-444 0 -528 -799q51 153 172.5 249.5t265.5 96.5q199 0 300 -128t69 -355q-31 -230 -164.5 -368t-335.5 -138q-218 0 -319.5 196.5t-51.5 548.5zM233 537 q-19 -128 10.5 -231.5t104.5 -164.5t182 -61q153 0 262.5 115t137.5 303q26 189 -44 296t-243 107q-92 0 -180.5 -46.5t-152 -131.5t-77.5 -186z" />
<glyph unicode="7" horiz-adv-x="1101" d="M225 1399l13 82h895l-13 -82q-155 -202 -321.5 -486.5t-281.5 -525t-163 -387.5h-82q92 266 295.5 659t456.5 740h-799z" />
<glyph unicode="8" horiz-adv-x="1224" d="M106 412q19 129 124 244t221 137q-216 94 -185 325q26 181 161.5 286t322.5 105q123 0 212.5 -45.5t133 -135t26.5 -210.5q-34 -232 -274 -325q110 -22 183 -137t54 -244q-26 -187 -175.5 -300.5t-372.5 -113.5q-222 0 -339.5 113.5t-91.5 300.5zM188 406 q-20 -149 79 -238.5t282 -89.5t306.5 89.5t145.5 238.5q20 149 -78.5 244t-281.5 95q-180 0 -305.5 -95t-147.5 -244zM350 1122q-20 -138 63.5 -211t241.5 -73q159 0 262 73t123 211q20 140 -63.5 222.5t-239.5 82.5q-154 0 -260.5 -83t-126.5 -222z" />
<glyph unicode="9" horiz-adv-x="1138" d="M86 336h76q14 -118 94 -189t205 -71q219 0 357.5 199t180.5 599q-51 -153 -172.5 -249.5t-265.5 -96.5q-199 0 -299.5 128.5t-68.5 355.5q33 231 165 368.5t334 137.5q217 0 317.5 -196.5t51.5 -549.5q-51 -358 -209 -567t-401 -209q-152 0 -253.5 90.5t-111.5 249.5z M276 1016q-26 -189 44 -296.5t243 -107.5q141 0 264 106t146 259q30 195 -53 326t-246 131q-152 0 -262 -115.5t-136 -302.5z" />
<glyph unicode=":" horiz-adv-x="362" d="M49 6l23 158h114l-22 -158h-115zM168 840l22 159h115l-22 -159h-115z" />
<glyph unicode=";" horiz-adv-x="399" d="M10 -268l129 268h-51l21 158h114l-18 -140l-156 -286h-39zM197 840l20 159h117l-23 -159h-114z" />
<glyph unicode="&#x3c;" horiz-adv-x="991" d="M154 666l12 96l768 317l-12 -100l-650 -264l572 -266l-13 -93z" />
<glyph unicode="=" horiz-adv-x="1003" d="M125 465l10 76l737 2l-10 -76zM186 905l11 76l737 2l-10 -76z" />
<glyph unicode="&#x3e;" horiz-adv-x="989" d="M111 356l14 93l645 266l-573 264l14 100l678 -317l-15 -96z" />
<glyph unicode="?" horiz-adv-x="989" d="M172 1245q75 117 198 186.5t255 69.5q178 0 269.5 -98t68.5 -264q-10 -73 -41 -139.5t-73 -119.5t-90.5 -104.5t-97.5 -103.5t-91 -106t-73 -122.5t-42 -144.5h-76q11 81 42 154t72.5 129.5t89.5 109.5t95.5 103.5t88.5 101t71 113t39 129.5q19 128 -53.5 203t-211.5 75 q-107 0 -216 -63t-152 -148zM319 0l23 158h113l-23 -158h-113z" />
<glyph unicode="@" horiz-adv-x="1540" d="M100 520q23 161 97.5 307t184 254.5t255.5 173t303 64.5q95 0 182 -23t162.5 -74t127.5 -124t73.5 -181t3.5 -237q-32 -227 -153 -372.5t-271 -145.5q-69 0 -102.5 25t-36.5 89q-1 13 -6 14.5t-15 -9.5q-116 -148 -282 -148q-99 0 -159 99t-38 253q28 196 145 329.5 t265 133.5q74 0 126 -38t74 -105q0 -5 7 -1q4 2 6 7l32 86h76l-137 -469q-28 -101 -13.5 -140.5t72.5 -39.5q108 0 199 117.5t117 302.5q17 117 -2.5 213.5t-64.5 161t-110.5 108.5t-139 64t-152.5 20q-189 0 -350 -98.5t-260.5 -261.5t-127.5 -359q-18 -131 6 -247.5 t88.5 -207.5t181 -144.5t271.5 -53.5q60 0 110 9.5t98 32t77 40t82 53.5l39 -70q-214 -153 -441 -153q-162 0 -287.5 58.5t-200 160t-104 237t-8.5 289.5zM518 487q-19 -125 15.5 -195.5t111.5 -70.5q97 0 189 90t129 219q34 114 17.5 187.5t-57 108t-96.5 34.5 q-116 0 -201.5 -107.5t-107.5 -265.5z" />
<glyph unicode="A" d="M39 0l706 1481h105l289 -1481h-82l-90 467h-625l-225 -467h-78zM381 555h569l-164 840z" />
<glyph unicode="B" horiz-adv-x="1247" d="M141 0l209 1481h383q230 0 342 -99q91 -80 91 -217q0 -32 -5 -67q-19 -131 -94 -216.5t-223 -129.5q146 -28 210 -118q48 -67 48 -167q0 -34 -6 -72q-27 -195 -174 -295t-392 -100h-389zM227 84h305q225 0 346 70t144 229q4 29 4 55q0 52 -16 96q-24 64 -78 101 t-125 54.5t-160 17.5h-332zM326 791h331q56 0 107 7t107 27t98.5 52t74.5 86t41 124q4 28 4 54q1 117 -81 181q-100 78 -295 77h-301z" />
<glyph unicode="C" horiz-adv-x="1292" d="M172 735q51 364 217.5 565t421.5 201q135 0 235 -57q101 -58 149 -148q44 -84 44 -181v-17l-84 -15q-6 152 -95 243t-257 91q-224 0 -362.5 -174t-184.5 -508q-15 -110 -16 -202q0 -184 62 -298q92 -172 327 -172q141 0 255 83t167 231l75 -23q-24 -104 -104 -190.5 t-189 -135t-221 -48.5q-264 0 -378 196q-78 136 -78 350q0 97 16 209z" />
<glyph unicode="D" horiz-adv-x="1286" d="M141 0l209 1481h14t35 -0.5t49 -1t61 -0.5h66q374 -1 518 -177q105 -129 106 -363q0 -86 -15 -187q-55 -389 -260 -570.5t-582 -181.5h-201zM233 84h115q169 0 295 35t222 113t155 204.5t84 306.5q14 95 14 175v5q0 75 -13 137q-13 64 -36.5 114t-61 87t-84 63.5 t-106.5 42.5t-127 23t-147 7h-125z" />
<glyph unicode="E" horiz-adv-x="1169" d="M141 0l209 1481h783l-13 -82h-708l-86 -608h659l-10 -84h-660l-88 -621l736 -2l-13 -84h-809z" />
<glyph unicode="F" horiz-adv-x="1077" d="M141 0l207 1481h770l-10 -82h-690l-84 -606h639l-10 -84h-641l-101 -709h-80z" />
<glyph unicode="G" horiz-adv-x="1368" d="M172 735q50 365 224 565.5t427 200.5q171 0 295 -119q117 -112 117 -263v-17l-90 -17q-2 142 -95 237t-239 95q-221 0 -369 -177.5t-192 -491.5q-15 -107 -15 -198q0 -192 65 -312q97 -179 321 -179q84 0 159.5 29t130 75.5t96.5 106.5t66.5 121t32.5 119l24 172h-380 l10 72h454l-106 -754h-74l37 258q-77 -126 -195 -202t-268 -76q-257 0 -372 199q-80 138 -80 352q0 94 16 204z" />
<glyph unicode="H" horiz-adv-x="1320" d="M141 0l209 1481h74l-94 -668h751l95 668h73l-209 -1481h-73l102 729h-752l-102 -729h-74z" />
<glyph unicode="I" horiz-adv-x="493" d="M141 0l207 1481h74l-207 -1481h-74z" />
<glyph unicode="J" horiz-adv-x="702" d="M-18 39l30 88q1 -1 36 -23t66 -31.5t74 -9.5q89 0 132.5 56t62.5 196l164 1166h74l-168 -1194q-22 -151 -84.5 -229t-188.5 -78q-48 0 -95 12.5t-71.5 25.5t-31.5 21z" />
<glyph unicode="K" horiz-adv-x="1230" d="M141 0l209 1481h76l-119 -854l844 854h100l-573 -584l397 -897h-96l-373 834l-315 -326l-72 -508h-78z" />
<glyph unicode="L" horiz-adv-x="1062" d="M141 0l209 1481h80l-197 -1393h697l-12 -88h-777z" />
<glyph unicode="M" horiz-adv-x="1611" d="M141 0l207 1481h84l313 -1391l715 1391h80l-207 -1481h-82l179 1262l-642 -1262h-108l-283 1245l-176 -1245h-80z" />
<glyph unicode="N" horiz-adv-x="1376" d="M141 0l209 1481h60l634 -1321l187 1321h74l-209 -1481h-64l-631 1317l-186 -1317h-74z" />
<glyph unicode="O" horiz-adv-x="1392" d="M172 733q52 371 226.5 569.5t437.5 198.5q262 0 378 -197q81 -136 81 -355q0 -98 -17 -212q-52 -367 -224 -562t-433 -195q-265 0 -383 194q-82 135 -82 352q0 96 16 207zM256 737q-15 -109 -15 -201q-1 -190 65 -304q98 -169 329 -169q230 0 372 168t189 506 q16 112 16 206q0 190 -64 304q-96 170 -325 170q-230 0 -375 -171t-192 -509z" />
<glyph unicode="P" horiz-adv-x="1198" d="M141 0l207 1481h420q222 0 340 -117q94 -93 94 -250q0 -40 -6 -84q-32 -218 -181.5 -340.5t-363.5 -122.5h-350l-80 -567h-80zM313 655h351q181 0 302.5 100t147.5 281q5 36 5 69q-1 129 -77 201q-96 90 -288 89h-336z" />
<glyph unicode="Q" horiz-adv-x="1351" d="M141 737q52 372 225.5 568t436.5 196q261 0 379 -196q81 -136 81 -356q0 -98 -16 -212q-36 -263 -132.5 -436t-270.5 -264q58 -189 260 -199l-12 -82q-39 0 -81.5 10.5t-92.5 35.5t-93 76.5t-67 123.5q-99 -22 -170 -22q-259 0 -380 193q-83 134 -83 354q0 97 16 210z M223 733q-15 -109 -15 -200q0 -189 66 -303q97 -167 326 -167t373.5 168t191.5 506q16 110 16 202q0 188 -65 305q-95 173 -325 173q-231 0 -376 -174t-192 -510z" />
<glyph unicode="R" horiz-adv-x="1269" d="M141 0l209 1481h479q201 0 297 -93q77 -74 77 -205q0 -33 -5 -69q-12 -89 -48.5 -160t-87.5 -116t-102.5 -72.5t-107.5 -42.5l180 -723h-84l-176 705h-457l-100 -705h-74zM326 788h344q202 0 312.5 74t133.5 238q5 34 5 64q-1 107 -59 163q-74 72 -245 72h-405z" />
<glyph unicode="S" horiz-adv-x="1296" d="M117 342l82 18q9 -145 117.5 -223t267.5 -78q178 0 301.5 84t142.5 215q5 34 5 65q0 199 -208 257l-293 82q-150 44 -218 122q-54 62 -54 155q0 25 4 51q25 177 168 293t346 116q90 0 162 -21.5t119 -58t77.5 -87t42.5 -106.5q10 -45 10 -95q0 -12 -1 -25l-78 -16 q-3 170 -99 247.5t-249 77.5q-64 0 -130 -19.5t-127 -57t-104.5 -102t-54.5 -144.5q-3 -20 -3 -38q0 -72 44 -121q55 -61 207 -106l278 -82q99 -29 157.5 -89t76.5 -133q10 -42 10 -89q0 -35 -6 -72q-23 -165 -164.5 -273.5t-374.5 -108.5q-192 0 -320 97.5t-134 264.5z" />
<glyph unicode="T" horiz-adv-x="1032" d="M154 1399l10 82h971l-11 -82h-430l-196 -1399h-74l197 1399h-467z" />
<glyph unicode="U" horiz-adv-x="1331" d="M209 489l139 992h80l-143 -1026q-8 -53 -8 -99q0 -299 321 -299q378 0 434 398l144 1026h73l-143 -1022q-34 -241 -162.5 -360t-355.5 -119q-232 0 -324 124q-66 88 -66 247q0 63 11 138z" />
<glyph unicode="V" horiz-adv-x="1146" d="M164 1481h80l260 -1397l665 1397h80l-702 -1481h-109z" />
<glyph unicode="W" horiz-adv-x="1787" d="M195 1481h84l153 -1381l555 1381h74l164 -1381l555 1381h80l-600 -1481h-103l-156 1327l-534 -1327h-98z" />
<glyph unicode="X" horiz-adv-x="1163" d="M-12 0l577 760l-348 721h98l310 -645l493 645h94l-550 -721l366 -760h-94l-330 680l-522 -680h-94z" />
<glyph unicode="Y" horiz-adv-x="1017" d="M154 1481h82l303 -762l510 762h81l-567 -844l-90 -637h-72l88 639z" />
<glyph unicode="Z" horiz-adv-x="1124" d="M39 0l10 63l987 1338h-782l10 80h881l-8 -62l-994 -1339h805l-12 -80h-897z" />
<glyph unicode="[" horiz-adv-x="526" d="M96 -330l252 1811h270l-10 -74h-190l-236 -1663h191l-11 -74h-266z" />
<glyph unicode="\" horiz-adv-x="606" d="M164 1481h78l241 -1602h-80z" />
<glyph unicode="]" horiz-adv-x="569" d="M-68 -330l11 74h190l236 1663h-191l10 74h267l-252 -1811h-271z" />
<glyph unicode="^" horiz-adv-x="886" d="M78 279l368 727q34 70 70.5 72t54.5 -72l168 -732h-90l-147 674l-340 -669h-84z" />
<glyph unicode="_" horiz-adv-x="931" d="M31 -203l12 80l664 2l-13 -80z" />
<glyph unicode="`" horiz-adv-x="499" d="M137 1405l39 92l418 -188l-29 -64z" />
<glyph unicode="a" horiz-adv-x="1028" d="M76 270q25 179 142.5 260.5t361.5 90.5l225 8l14 102q4 26 4 50q1 89 -53 147q-68 72 -195 73q-109 0 -194 -59.5t-115 -165.5h-80q25 122 134 212.5t270 90.5q158 1 242 -93q66 -73 66 -188q0 -31 -5 -65l-102 -733h-68l25 205q-142 -225 -400 -225q-145 0 -218 78 q-58 61 -58 159q0 25 4 53zM154 276q-2 -19 -2 -36q0 -78 48 -126q58 -58 171 -59q124 0 251 91t142 196l29 207l-189 -4q-229 -4 -329 -66t-121 -203z" />
<glyph unicode="b" horiz-adv-x="1120" d="M121 0l213 1522h74l-93 -662q12 22 24.5 41t46 54.5t70.5 60t98 44t130 19.5q82 0 145.5 -28t102 -78t61.5 -119q23 -68 25 -150q0 -10 -1 -20q0 -73 -9 -152q-38 -260 -160 -406t-318 -146q-73 0 -130.5 21t-88 47.5t-51.5 64.5t-27 59.5t-10 44.5l-37 -217h-65z M246 365q-2 -18 -2 -35q0 -100 70 -180q82 -94 225 -95q150 0 253 119.5t136 357.5q10 72 10 133q0 127 -44 211q-66 125 -228 125q-226 0 -331 -195q-23 -43 -44 -112z" />
<glyph unicode="c" horiz-adv-x="1017" d="M113 524q36 249 171 402t330 153q63 0 119 -18t101.5 -53.5t73.5 -95t32 -136.5l-80 -4q-13 119 -80.5 174t-167.5 55q-163 0 -277 -129.5t-145 -343.5q-8 -61 -8 -115q0 -137 54 -229q76 -128 241 -129q105 0 191 57.5t125 170.5h77q-36 -107 -105 -177.5t-145 -98 t-161 -27.5q-196 0 -288 149q-67 109 -67 269q0 60 9 126z" />
<glyph unicode="d" horiz-adv-x="1110" d="M113 532q17 115 54 212t94.5 173t142 119t186.5 43q64 0 118 -17t86 -40.5t56.5 -54.5t34.5 -51.5t16 -38.5l90 645h74l-215 -1522h-66l25 217q-7 -16 -14 -29t-24.5 -39t-36.5 -46.5t-50.5 -44.5t-65.5 -40t-82.5 -27t-101.5 -11q-195 0 -276 146q-56 101 -56 257 q0 69 11 149zM193 532q-11 -78 -11 -144q0 -134 46 -214q70 -120 218 -119q145 0 253 94.5t128 215.5l47 329q-1 13 -1.5 23t-4 33.5t-9 43t-16.5 46.5t-25 48t-36 43t-49 36.5t-65 24t-82 9.5q-161 0 -262 -125t-131 -344z" />
<glyph unicode="e" horiz-adv-x="1036" d="M111 520q37 263 167.5 411t327.5 148q188 0 274 -134q61 -95 60 -246q0 -62 -10 -132l-8 -59h-736q-6 -58 -7 -112q0 -13 1 -27q2 -66 22.5 -122.5t55 -98.5t90 -65.5t127.5 -23.5q113 0 196.5 58.5t129.5 165.5h78q-41 -104 -107 -173.5t-142.5 -99.5t-166.5 -30 q-194 0 -291 142q-71 104 -71 268q0 61 10 130zM201 588h655q8 50 8 96q0 36 -4 68q-10 76 -40 130.5t-88 85.5t-138 31q-86 0 -157.5 -36t-119 -95.5t-76.5 -130.5t-40 -149z" />
<glyph unicode="f" horiz-adv-x="768" d="M158 989l10 70h231l25 176q19 125 77.5 185.5t166.5 60.5h141l-8 -70h-162q-66 0 -97 -39.5t-42 -120.5l-27 -192h268l-10 -70h-268l-137 -989h-74l139 989h-233z" />
<glyph unicode="g" horiz-adv-x="1155" d="M20 -53q6 45 27 85t50 68.5t54.5 48.5t52.5 37t32 21q-3 3 -11 8.5t-11.5 8t-11 9t-10 10t-9 11t-7.5 12.5t-5 14.5t-2 17t1 19.5q6 43 48.5 79t115.5 59q-84 54 -112 117q-20 43 -20 103q0 29 5 62q22 158 136.5 248t295.5 90q89 0 151.5 -24t112.5 -76q198 88 225 98 l-18 -119l-178 -41q11 -33 18 -86q3 -28 3 -51q0 -21 -3 -39q-20 -142 -125 -230.5t-290 -88.5h-21q-134 -3 -197.5 -31.5t-68.5 -67.5v-6q0 -29 35 -43q39 -15 155 -24l219 -15q248 -15 248 -215q0 -26 -4 -55q-20 -149 -146.5 -230t-334.5 -81q-211 0 -316 78 q-87 66 -87 176q0 21 3 43zM98 -45q-2 -16 -2 -30q0 -88 78 -139q90 -60 272 -60q343 0 379 235q2 19 2 35q0 63 -32 100q-41 47 -152 54l-319 22h-5q-30 0 -75 -24q-49 -26 -93.5 -79t-52.5 -114zM281 741q-3 -24 -3 -46q0 -88 54 -138q68 -63 215 -63q295 0 330 247 q4 28 4 53q0 89 -55 140q-71 65 -208 65q-144 0 -232 -67.5t-105 -190.5z" />
<glyph unicode="h" horiz-adv-x="1118" d="M121 0l215 1522h67l-88 -621q52 79 146.5 128.5t210.5 49.5q146 0 231 -83q69 -68 70 -166q0 -22 -4 -46l-111 -784h-74l107 754q4 25 4 47q0 83 -50 135q-63 66 -188 65q-138 0 -239 -68t-119 -196l-104 -737h-74z" />
<glyph unicode="i" horiz-adv-x="501" d="M141 0l148 1059h73l-147 -1059h-74zM317 1325l19 123h90l-18 -123h-91z" />
<glyph unicode="j" horiz-adv-x="458" d="M-180 -322l8 54l117 2q74 2 110 40.5t49 133.5l162 1151h74l-164 -1161q-18 -129 -68 -183.5t-171 -54.5q-108 0 -117 18zM297 1325l16 123h90l-16 -123h-90z" />
<glyph unicode="k" horiz-adv-x="1056" d="M121 0l215 1522h72l-152 -1084l645 621h105l-404 -385l289 -674h-94l-260 606l-297 -282l-45 -324h-74z" />
<glyph unicode="l" horiz-adv-x="530" d="M156 248l180 1274h74l-181 -1274q-4 -32 -4 -58q0 -53 17 -84q26 -47 71 -47h60l-8 -59q-33 -8 -64 -8q-93 0 -127 70q-24 48 -23 117q0 32 5 69z" />
<glyph unicode="m" horiz-adv-x="1628" d="M121 0l147 1059h68l-23 -158q116 178 308 178q91 0 167 -47t95 -129q57 84 141 130t182 46q31 0 58.5 -4t59 -14.5t55 -29t47 -48t33.5 -71t15 -97.5q1 -16 1 -32q0 -44 -9 -97l-96 -686h-72l97 686q8 47 8 86q0 24 -3 45q-8 55 -23.5 90.5t-45.5 56.5t-62 29t-73 8 q-47 0 -93 -12.5t-93 -40.5t-81 -82.5t-44 -128.5l-105 -737h-71l106 770q3 19 3 37q0 35 -10 65q-16 46 -47.5 73t-71 41.5t-81.5 14.5q-49 0 -97.5 -15t-93.5 -45t-77.5 -83t-42.5 -121l-104 -737h-72z" />
<glyph unicode="n" horiz-adv-x="1114" d="M121 0l147 1059h68l-21 -158q49 78 143.5 128t209.5 50q154 0 233 -99q58 -73 58 -199q0 -44 -7 -95l-96 -686h-74l99 686q5 39 5 74q0 99 -44 159q-60 82 -185 82q-139 0 -240.5 -67.5t-119.5 -196.5l-104 -737h-72z" />
<glyph unicode="o" horiz-adv-x="1064" d="M113 522q36 250 169.5 403.5t331.5 153.5q194 -1 283 -153q64 -110 64 -270q0 -61 -9 -130q-34 -248 -165.5 -397t-329.5 -149q-199 0 -289 148q-65 107 -64 266q0 60 9 128zM190 526q-9 -64 -8 -119q0 -135 50 -225q72 -128 239 -127q166 0 269.5 126t133.5 345 q10 69 10 129q0 130 -48 218q-70 128 -234.5 128t-272 -128.5t-139.5 -346.5z" />
<glyph unicode="p" horiz-adv-x="1118" d="M74 -330l194 1389h70l-23 -158q2 2 17 18.5t24.5 26t30.5 28.5t39 31t46 27.5t55 24.5t62.5 15.5t72.5 6.5q185 0 283 -137q72 -101 72 -267q0 -59 -9 -126q-37 -257 -179.5 -413t-343.5 -156q-167 0 -272 159l-66 -469h-73zM223 207q122 -152 273 -152 q161 0 281.5 131.5t150.5 354.5q8 59 8 110.5t-8 94.5q-15 87 -57.5 143.5t-100.5 84t-129 27.5q-129 0 -231 -88.5t-115 -185.5z" />
<glyph unicode="q" horiz-adv-x="1107" d="M115 549q18 129 64.5 231.5t112.5 167t146 98t170 33.5q42 0 79 -7t65.5 -22t49.5 -28.5t39.5 -35t28 -33t22 -31t13.5 -21.5l23 158h69l-196 -1389h-72l74 527q-45 -101 -131 -159t-197 -58q-201 0 -299 156q-71 114 -71 282q0 62 10 131zM190 541q-8 -59 -8 -112 q0 -147 61 -243q83 -131 244 -131q74 0 137.5 30.5t104.5 78.5t66 102t32 107l50 354q2 13 2 26q0 48 -23 97q-30 63 -97 107t-153 44q-71 0 -137 -28t-123 -82.5t-98.5 -144.5t-57.5 -205z" />
<glyph unicode="r" horiz-adv-x="696" d="M121 0l149 1059h68l-23 -158q52 78 158.5 128t239.5 50l-13 -82h-5q-175 0 -276 -67q-102 -68 -120 -193l-104 -737h-74z" />
<glyph unicode="s" horiz-adv-x="958" d="M78 283h84q3 -109 71 -165.5t187 -56.5q120 0 199 55.5t94 155.5q2 15 2 28q0 115 -129 159l-207 69q-109 36 -159 95q-39 46 -39 117q0 20 3 42q21 147 125 222t252 75q137 1 213 -73q65 -63 65 -172q0 -17 -1 -35h-80v9q0 84 -52 136q-54 54 -157 53q-44 0 -87 -10 t-86.5 -33t-74.5 -67.5t-39 -104.5q-2 -14 -2 -28q0 -50 29 -80q37 -40 121 -66l223 -69q95 -31 132 -101q29 -54 29 -121q0 -20 -3 -41q-21 -140 -129 -218t-252 -78q-158 0 -247 80q-85 76 -85 211v12z" />
<glyph unicode="t" horiz-adv-x="634" d="M127 989l10 70h158l61 297h58l-41 -297h225l-10 -70h-226l-104 -741q-5 -37 -5.5 -63.5t5 -45.5t14.5 -30t26.5 -18t37.5 -9t51 -2h82l-10 -70q-31 -10 -119 -10q-109 0 -144 54q-23 35 -23 102q0 36 7 82l107 751h-160z" />
<glyph unicode="u" horiz-adv-x="1105" d="M160 356l100 707h74l-101 -707q-4 -30 -4 -57q0 -33 6 -63q11 -53 36.5 -85.5t62 -54t73 -29.5t74.5 -8q123 0 222.5 80.5t121.5 233.5l99 690h71l-147 -1061h-68l21 195q-39 -96 -129 -156q-89 -59 -194 -59h-3q-52 1 -99 12t-92.5 38.5t-76.5 69.5q-31 40 -45 106 q-7 36 -7 78q0 33 5 70z" />
<glyph unicode="v" horiz-adv-x="935" d="M145 1059h80l166 -969h25l448 969h74l-485 -1059h-119z" />
<glyph unicode="w" horiz-adv-x="1474" d="M156 1059h80l122 -971h23l397 971h68l139 -967h23l383 967h75l-417 -1059h-123l-133 922l-371 -922h-129z" />
<glyph unicode="x" horiz-adv-x="1034" d="M18 0l453 549l-276 510h92l241 -447l367 447h92l-420 -510l301 -549h-92l-266 485l-399 -485h-93z" />
<glyph unicode="y" horiz-adv-x="970" d="M-18 -322l8 56h104q84 0 134 34.5t81 96.5l70 141l-234 1053h80l209 -944l467 944h72l-596 -1213q-94 -184 -281 -184q-42 0 -70.5 4t-35.5 8z" />
<glyph unicode="z" horiz-adv-x="933" d="M39 0l10 78l744 911h-576l10 70h656l-13 -84l-737 -905h623l-8 -70h-709z" />
<glyph unicode="{" horiz-adv-x="514" d="M10 537l13 77q102 1 165.5 64.5t77.5 159.5l66 465q11 80 67.5 129t155.5 49h51l-10 -74h-53q-63 0 -93 -24t-38 -80l-66 -465q-17 -116 -74 -181t-135 -73q-7 -1 -10.5 -4t-1.5 -6.5t10 -4.5q76 -6 115.5 -66.5t23.5 -178.5l-65 -469q-8 -59 13.5 -85t88.5 -26h51 l-10 -74h-51q-103 0 -144 51t-30 134l68 469q10 81 -38.5 147t-146.5 66z" />
<glyph unicode="|" horiz-adv-x="491" d="M96 -330l283 2022h72l-285 -2022h-70z" />
<glyph unicode="}" horiz-adv-x="532" d="M-72 -330l11 74h53q63 0 93 24t38 80l65 465q17 116 74 181t135 73q7 1 10.5 4t1.5 6.5t-10 4.5q-76 6 -115.5 66.5t-23.5 178.5l66 469q8 59 -14 85t-89 26h-51l10 74h51q103 0 144.5 -51t30.5 -134l-68 -469q-10 -81 38 -147t146 -66l-12 -77q-103 -1 -166.5 -64.5 t-77.5 -159.5l-65 -465q-11 -80 -67.5 -129t-155.5 -49h-52z" />
<glyph unicode="~" horiz-adv-x="1005" d="M152 735q53 45 104 70.5t121 25.5q65 0 168 -45t168 -45q46 0 84.5 14t58.5 29.5t45 40.5l14 -69q-29 -34 -83.5 -60t-131.5 -26q-62 0 -116.5 22t-106.5 44t-106 22q-113 0 -205 -88z" />
<glyph unicode="&#xa1;" horiz-adv-x="446" d="M66 -330l159 1092h60l-123 -1092h-96zM217 901l21 158h112l-20 -158h-113z" />
<glyph unicode="&#xa2;" horiz-adv-x="1005" d="M143 752q31 220 142.5 367t275.5 179v183h74v-174h10q63 0 119 -18t101.5 -53.5t73.5 -95t32 -136.5l-80 -5q-13 119 -80.5 174.5t-167.5 55.5q-163 0 -277 -129.5t-145 -343.5q-30 -216 46.5 -344.5t240.5 -128.5q105 0 190.5 57t124.5 170h78q-73 -217 -266 -281v-229 h-74v213q-37 -6 -72 -6q-196 0 -288 149.5t-58 395.5z" />
<glyph unicode="&#xa3;" horiz-adv-x="1099" d="M-53 0l10 78h78q77 0 140.5 89t88.5 261q18 130 15 287h-189l10 76h181l-17 153q-12 123 19.5 229.5t92.5 177t142.5 110.5t169.5 40q112 0 198.5 -58.5t104.5 -133.5l-73 -39q-26 72 -82.5 108.5t-155.5 36.5q-125 0 -218.5 -75.5t-113.5 -206.5q-9 -71 -7 -167.5 t17 -172.5h332l-12 -76h-322q6 -144 -8 -254q-35 -247 -164 -383h402q106 0 177.5 39t117.5 131l63 -31q-116 -219 -371 -219h-626z" />
<glyph unicode="&#xa4;" horiz-adv-x="964" d="M119 428l114 107q-48 88 -32 210q15 110 84 195q10 13 2 25l-76 100l61 57l84 -112q87 69 201 69q102 0 166 -61q14 -9 25 2l114 106l43 -59l-123 -117q50 -92 35 -205q-15 -111 -82 -190q-11 -18 -2 -29l84 -100l-61 -59l-90 114q-99 -73 -203 -73q-102 0 -172 61 q-12 12 -23 -2l-106 -102zM285 745q-14 -102 41 -175.5t153 -73.5q96 0 172 74t90 175t-41 175.5t-151 74.5t-173 -75t-91 -175z" />
<glyph unicode="&#xa5;" horiz-adv-x="1067" d="M164 1481h96l303 -762l522 762h84l-557 -807h283l-10 -76h-295l-29 -205h295l-12 -76h-293l-45 -317h-84l43 315h-293l10 76h295l27 205h-293l10 76h266z" />
<glyph unicode="&#xa6;" horiz-adv-x="491" d="M96 -330l113 807h70l-113 -807h-70zM266 885l113 807h72l-115 -807h-70z" />
<glyph unicode="&#xa7;" horiz-adv-x="899" d="M33 100l65 41q36 -90 114.5 -143t182.5 -53q109 0 185 48.5t88 133.5q10 66 -30.5 121t-154.5 108l-168 76q-195 87 -172 273q13 91 79.5 159.5t162.5 104.5q-110 64 -143 129t-23 145q17 112 118.5 185t244.5 73q106 0 185.5 -54.5t121.5 -137.5l-68 -43 q-88 155 -241 155q-120 0 -194.5 -47.5t-86.5 -126.5q-7 -60 26 -111t132 -98l155 -73q238 -116 209 -318q-12 -96 -70.5 -156t-148.5 -102q82 -55 120 -118t28 -144q-17 -114 -121 -188t-250 -74q-117 0 -213.5 64t-132.5 171zM225 711q-9 -67 22.5 -112.5t131.5 -94.5 l121 -62q82 -6 154.5 52.5t82.5 140.5q11 83 -17 136.5t-126 100.5l-113 52q-91 -7 -168 -71.5t-88 -141.5z" />
<glyph unicode="&#xa8;" horiz-adv-x="327" d="M113 1325l16 123h90l-16 -123h-90zM350 1325l17 123h90l-17 -123h-90z" />
<glyph unicode="&#xa9;" horiz-adv-x="1521" d="M92 741q28 206 146.5 381t294.5 277t366 102q142 0 263 -60.5t200 -162.5t115 -242.5t14 -294.5q-22 -156 -97.5 -297.5t-183.5 -242.5t-245.5 -161t-278.5 -60q-191 0 -338 101t-216 276t-40 384zM174 741q-21 -150 11 -277.5t104.5 -213.5t178 -134t230.5 -48 q121 0 239.5 48t216 134t166 214t89.5 277q21 147 -12 274.5t-105.5 214t-177.5 136t-227 49.5q-125 0 -244.5 -49t-216 -136t-164 -214t-88.5 -275zM451 745q26 191 139.5 312t267.5 121q170 0 266 -191l-73 -43q-67 156 -199 156q-119 0 -208.5 -97.5t-111.5 -252.5 q-23 -157 39.5 -256t180.5 -99q75 0 144 45.5t116 122.5l53 -39q-67 -97 -152.5 -152t-175.5 -55q-155 0 -234.5 118t-51.5 310z" />
<glyph unicode="&#xaa;" horiz-adv-x="786" d="M178 991q26 187 322 217l137 15l6 51q21 153 -147 153q-62 0 -107.5 -23.5t-91.5 -84.5l-55 27q43 71 113.5 110t156.5 39q108 0 159.5 -61t37.5 -168q-9 -60 -20 -135.5t-13 -90.5q-7 -45 -10 -133l-2 -86h-70l-2 103q-112 -115 -234 -115q-97 0 -144.5 48t-35.5 134z M250 993q-7 -55 29 -88t102 -33q85 0 158 64q66 56 71 104l17 119l-113 -10q-245 -20 -264 -156z" />
<glyph unicode="&#xab;" horiz-adv-x="784" d="M59 514l324 375h53l-278 -375l172 -358h-51zM367 514l323 375h53l-278 -375l172 -358h-51z" />
<glyph unicode="&#xac;" horiz-adv-x="1005" d="M158 705l12 75l737 2l-2 -14l-49 -340h-68l37 279z" />
<glyph unicode="&#xad;" horiz-adv-x="710" d="M129 489l10 80l443 2l-11 -79z" />
<glyph unicode="&#xae;" horiz-adv-x="997" d="M131 1024q28 199 175 338t331 139q118 0 209.5 -63.5t134.5 -173.5t25 -240q-28 -198 -175 -336.5t-329 -138.5q-90 0 -166 37.5t-126 101t-71.5 151.5t-7.5 185zM197 1024q-26 -185 61 -295.5t254 -110.5q164 0 283 111t145 295q26 183 -61.5 295.5t-251.5 112.5 q-166 0 -285 -112t-145 -296zM375 784l67 473h189q65 0 95.5 -29t23.5 -85q-12 -92 -113 -127l51 -232h-59l-47 228h-119l-33 -228h-55zM469 1069h121q92 0 102 66q4 31 -14.5 49t-73.5 18h-115z" />
<glyph unicode="&#xaf;" horiz-adv-x="501" d="M137 1366l10 76h463l-10 -76h-463z" />
<glyph unicode="&#xb0;" horiz-adv-x="876" d="M289 1413q19 132 107.5 216.5t209.5 84.5q119 0 185 -85t47 -216q-19 -130 -108.5 -214.5t-209.5 -84.5t-185 84t-46 215zM360 1411q-12 -101 33 -163t135 -62q91 0 153.5 62t76.5 163q15 101 -30 163t-138 62q-89 0 -152.5 -62.5t-77.5 -162.5z" />
<glyph unicode="&#xb1;" horiz-adv-x="1003" d="M82 166l10 76l737 2l-10 -76zM178 844l10 76h334l51 364h70l-51 -362h334l-11 -76h-333l-52 -363h-67l49 361h-334z" />
<glyph unicode="&#xb2;" horiz-adv-x="641" d="M109 786l8 54l4 28q10 68 43 123.5t78.5 93.5t99.5 71.5t107.5 65.5t98.5 66.5t77.5 84.5t40.5 110q12 88 -37.5 141t-143.5 53q-100 0 -166.5 -60.5t-82.5 -154.5h-54q21 113 106 191t210 78q114 0 173 -67.5t44 -180.5q-10 -69 -42.5 -125t-78 -93.5t-99 -71 t-106.5 -65t-98.5 -66t-77.5 -84t-41 -110.5l-4 -28h467l-8 -54h-518z" />
<glyph unicode="&#xb3;" horiz-adv-x="733" d="M123 1034h51q-2 -95 52.5 -152t150.5 -57q109 0 184.5 57.5t89.5 149.5q14 104 -53 160.5t-182 56.5h-74l6 54h74q98 0 177.5 60t90.5 136q10 72 -39 125t-153 53q-84 0 -158 -57.5t-88 -157.5h-53q17 117 105.5 193t197.5 76q124 0 189 -63.5t50 -168.5 q-9 -71 -61.5 -129t-138.5 -88q93 -29 134 -93t27 -153q-15 -119 -109 -192t-231 -70q-113 2 -182 73.5t-57 186.5z" />
<glyph unicode="&#xb4;" horiz-adv-x="495" d="M123 1309l469 188l12 -92l-471 -160z" />
<glyph unicode="&#xb5;" horiz-adv-x="1116" d="M61 -338l201 1423h76l-115 -804q-12 -90 47.5 -157t155.5 -67q165 0 395 217l113 811h76l-154 -1085h-70l25 168q-135 -105 -219.5 -146.5t-171.5 -41.5q-149 0 -225 96l-58 -414h-76z" />
<glyph unicode="&#xb6;" horiz-adv-x="1019" d="M182 1026q12 86 50 165.5t97.5 145t149 105t193.5 39.5h297l-8 -64h-111l-223 -1587h-64l223 1587h-79l-224 -1587h-63l108 776q-96 0 -170 35.5t-115 95.5t-57 134.5t-4 154.5z" />
<glyph unicode="&#xb7;" horiz-adv-x="395" d="M141 668l23 157h149l-22 -157h-150z" />
<glyph unicode="&#xb8;" horiz-adv-x="358" d="M-109 -360l29 57q38 -45 107 -45q107 0 120 86q7 47 -24.5 70t-102.5 26q-14 0 -6 8l90 168h64l-66 -127q78 -7 106 -46.5t21 -94.5q-10 -72 -67 -111t-135 -39q-82 0 -136 48z" />
<glyph unicode="&#xb9;" horiz-adv-x="567" d="M158 1563l6 51q80 0 121.5 9.5t58 29t21.5 57.5h41l-132 -932h-49l111 785h-178z" />
<glyph unicode="&#xba;" horiz-adv-x="788" d="M201 1153q22 157 111 251.5t218 94.5q130 0 193 -95t41 -251q-22 -153 -109.5 -246.5t-222.5 -93.5q-133 0 -193 93.5t-38 246.5zM276 1159q-19 -130 23.5 -205t142.5 -75t164 75t82 205q18 123 -25.5 197t-142.5 74t-162.5 -74t-81.5 -197z" />
<glyph unicode="&#xbb;" horiz-adv-x="782" d="M43 156l272 358l-172 375h50l219 -375l-320 -358h-49zM350 156l273 358l-174 375h51l219 -375l-320 -358h-49z" />
<glyph unicode="&#xbc;" horiz-adv-x="1751" d="M127 1350l6 51q80 0 121.5 9.5t58 29t21.5 57.5h41l-131 -932h-49l110 785h-178zM205 -8l1132 1505h70l-1128 -1505h-74zM989 268l8 64l494 600h53l-86 -610h152l-8 -54h-152l-37 -268h-49l37 268h-412zM1047 322h358l74 524z" />
<glyph unicode="&#xbd;" horiz-adv-x="1697" d="M127 1350l6 51q80 0 121.5 9.5t58 29t21.5 57.5h41l-131 -932h-49l110 785h-178zM205 -8l1132 1505h70l-1128 -1505h-74zM983 0l8 53l4 29q10 68 43 123.5t78.5 93.5t99.5 71t107.5 65t98.5 66.5t77.5 84.5t40.5 110q12 88 -37 141.5t-143 53.5q-100 0 -167.5 -60.5 t-82.5 -154.5h-53q21 113 105.5 190.5t209.5 77.5q114 0 173 -67.5t44 -180.5q-10 -69 -42.5 -125t-78 -93.5t-99 -70.5t-106.5 -64.5t-98 -66t-77 -84t-41 -110.5l-5 -29h467l-8 -53h-518z" />
<glyph unicode="&#xbe;" horiz-adv-x="1916" d="M92 819h51q-2 -95 52.5 -152t150.5 -57q109 0 185.5 57.5t89.5 149.5q14 104 -53.5 160.5t-182.5 56.5h-74l6 53h74q98 0 177.5 60t90.5 137q10 72 -39 125t-153 53q-84 0 -158 -57.5t-88 -157.5h-53q17 117 105.5 193t197.5 76q124 0 189.5 -63.5t50.5 -168.5 q-9 -70 -62 -128.5t-139 -88.5q93 -29 134.5 -93t27.5 -153q-15 -119 -109 -192t-231 -70q-113 2 -182.5 73.5t-57.5 186.5zM371 -8l1132 1505h70l-1129 -1505h-73zM1155 268l8 64l494 600h53l-86 -610h152l-9 -54h-151l-37 -268h-49l37 268h-412zM1212 322h359l74 524z" />
<glyph unicode="&#xbf;" horiz-adv-x="946" d="M-10 14q9 69 38 127.5t69 101.5t87 83.5t94 83t87.5 90t71 114t40.5 146.5h78q-11 -86 -41.5 -157.5t-70.5 -121t-86.5 -93.5t-92.5 -83.5t-85 -80t-67 -94t-36 -116.5q-17 -129 55.5 -204.5t212.5 -75.5q107 0 217.5 63.5t151.5 149.5l73 -41q-75 -117 -197 -186.5 t-255 -69.5q-180 0 -273 99t-71 265zM477 901l21 158h114l-20 -158h-115z" />
<glyph unicode="&#xc0;" d="M39 0l706 1481h105l289 -1481h-82l-90 467h-625l-225 -467h-78zM381 555h569l-164 840zM578 1827l38 92l418 -188l-28 -64z" />
<glyph unicode="&#xc1;" d="M39 0l706 1481h105l289 -1481h-82l-90 467h-625l-225 -467h-78zM381 555h569l-164 840zM596 1731l469 188l12 -92l-471 -160z" />
<glyph unicode="&#xc2;" d="M39 0l706 1481h105l289 -1481h-82l-90 467h-625l-225 -467h-78zM381 555h569l-164 840zM575 1708l252 195h60l194 -195h-114l-121 123l-164 -123h-107z" />
<glyph unicode="&#xc3;" d="M39 0l706 1481h105l289 -1481h-82l-90 467h-625l-225 -467h-78zM381 555h569l-164 840zM604 1823q39 30 70 44.5t71 14.5t105 -25.5t106 -25.5q33 0 56 10t57 33l18 -62l-9 -6l-12.5 -7.5t-12 -6.5t-14 -7t-14.5 -6t-18 -6t-18.5 -4t-21.5 -3t-23 -1q-49 0 -107 25 t-94 25q-21 0 -41.5 -6t-31.5 -11.5t-29 -17.5t-23 -15z" />
<glyph unicode="&#xc4;" d="M39 0l706 1481h105l289 -1481h-82l-90 467h-625l-225 -467h-78zM381 555h569l-164 840zM670 1747l16 123h90l-16 -123h-90zM907 1747l17 123h90l-17 -123h-90z" />
<glyph unicode="&#xc5;" d="M39 0l706 1481h105l289 -1481h-82l-90 467h-625l-225 -467h-78zM381 555h569l-164 840zM662 1825q10 79 72.5 135.5t137.5 56.5q77 0 122.5 -56.5t33.5 -139.5q-10 -84 -72 -141.5t-141 -57.5q-75 0 -120 58.5t-33 144.5zM735 1821q-7 -47 20 -83t70 -36q44 0 80.5 35.5 t44.5 83.5q6 52 -20 84t-72 32q-43 0 -79.5 -32.5t-43.5 -83.5z" />
<glyph unicode="&#xc6;" horiz-adv-x="1728" d="M-74 0l985 1481h781l-11 -80h-653l-86 -613h522l-10 -79h-524l-88 -629h680l-11 -80h-763l67 475h-493l-318 -475h-78zM369 555h456l119 848z" />
<glyph unicode="&#xc7;" horiz-adv-x="1292" d="M172 735q51 364 217.5 565t421.5 201q135 0 235.5 -57t148.5 -147.5t44 -198.5l-84 -15q-6 152 -95 243t-257 91q-224 0 -362.5 -174t-184.5 -508q-46 -328 45.5 -500t327.5 -172q141 0 255 83t167 231l75 -23q-35 -151 -178 -258t-311 -116l-49 -97q78 -7 106 -46.5 t21 -94.5q-10 -72 -67.5 -111t-135.5 -39q-81 0 -135 48l29 57q38 -45 106 -45q108 0 121 86q7 47 -24.5 70t-102.5 26q-14 0 -6 8l73 140q-244 13 -347.5 209t-53.5 544z" />
<glyph unicode="&#xc8;" horiz-adv-x="1169" d="M141 0l209 1481h783l-13 -82h-708l-86 -608h659l-10 -84h-660l-88 -621l736 -2l-13 -84h-809zM504 1827l39 92l418 -188l-29 -64z" />
<glyph unicode="&#xc9;" horiz-adv-x="1169" d="M141 0l209 1481h783l-13 -82h-708l-86 -608h659l-10 -84h-660l-88 -621l736 -2l-13 -84h-809zM522 1731l469 188l13 -92l-472 -160z" />
<glyph unicode="&#xca;" horiz-adv-x="1169" d="M141 0l209 1481h783l-13 -82h-708l-86 -608h659l-10 -84h-660l-88 -621l736 -2l-13 -84h-809zM502 1708l252 195h59l195 -195h-115l-121 123l-164 -123h-106z" />
<glyph unicode="&#xcb;" horiz-adv-x="1169" d="M141 0l209 1481h783l-13 -82h-708l-86 -608h659l-10 -84h-660l-88 -621l736 -2l-13 -84h-809zM596 1747l16 123h90l-16 -123h-90zM834 1747l16 123h90l-16 -123h-90z" />
<glyph unicode="&#xcc;" horiz-adv-x="493" d="M141 0l207 1481h74l-207 -1481h-74zM168 1827l39 92l418 -188l-29 -64z" />
<glyph unicode="&#xcd;" horiz-adv-x="493" d="M141 0l207 1481h74l-207 -1481h-74zM186 1731l469 188l13 -92l-471 -160z" />
<glyph unicode="&#xce;" horiz-adv-x="493" d="M141 0l207 1481h74l-207 -1481h-74zM166 1708l252 195h59l195 -195h-115l-121 123l-164 -123h-106z" />
<glyph unicode="&#xcf;" horiz-adv-x="493" d="M141 0l207 1481h74l-207 -1481h-74zM260 1747l16 123h91l-17 -123h-90zM498 1747l16 123h90l-16 -123h-90z" />
<glyph unicode="&#xd0;" horiz-adv-x="1318" d="M109 705v83h176l98 693h14t35 -0.5t49 -1t61 -0.5h66q374 -1 518 -177t91 -550q-55 -389 -260 -570.5t-582 -181.5h-201l100 705h-165zM266 84h115q169 0 295 35t222 113t155 204.5t84 306.5q18 109 13.5 197t-20.5 156t-52.5 118.5t-83 85.5t-112.5 56.5t-140.5 31 t-166.5 9.5h-124l-86 -609h356v-83h-367z" />
<glyph unicode="&#xd1;" horiz-adv-x="1376" d="M141 0l209 1481h60l634 -1321l187 1321h74l-209 -1481h-64l-631 1317l-186 -1317h-74zM635 1823q39 30 70 44.5t71 14.5t105 -25.5t106 -25.5q33 0 56 10t57 33l18 -62l-10 -6q-9 -6 -11.5 -7.5t-12 -6.5t-14 -7t-14.5 -6t-18 -6t-18.5 -4t-21.5 -3t-23 -1q-49 0 -107 25 t-94 25q-21 0 -41.5 -6t-31.5 -11.5t-29 -17.5t-23 -15z" />
<glyph unicode="&#xd2;" horiz-adv-x="1392" d="M172 733q52 371 226.5 569.5t437.5 198.5q261 0 377.5 -197t64.5 -567q-52 -367 -224 -562t-433 -195q-264 0 -382.5 194t-66.5 559zM256 737q-47 -336 50.5 -505t328.5 -169q230 0 372 168t189 506q47 340 -48.5 510t-324.5 170q-230 0 -375 -171t-192 -509zM616 1827 l39 92l418 -188l-29 -64z" />
<glyph unicode="&#xd3;" horiz-adv-x="1392" d="M172 733q52 371 226.5 569.5t437.5 198.5q261 0 377.5 -197t64.5 -567q-52 -367 -224 -562t-433 -195q-264 0 -382.5 194t-66.5 559zM256 737q-47 -336 50.5 -505t328.5 -169q230 0 372 168t189 506q47 340 -48.5 510t-324.5 170q-230 0 -375 -171t-192 -509zM635 1731 l469 188l12 -92l-471 -160z" />
<glyph unicode="&#xd4;" horiz-adv-x="1392" d="M172 733q52 371 226.5 569.5t437.5 198.5q261 0 377.5 -197t64.5 -567q-52 -367 -224 -562t-433 -195q-264 0 -382.5 194t-66.5 559zM256 737q-47 -336 50.5 -505t328.5 -169q230 0 372 168t189 506q47 340 -48.5 510t-324.5 170q-230 0 -375 -171t-192 -509zM614 1708 l252 195h60l194 -195h-114l-121 123l-164 -123h-107z" />
<glyph unicode="&#xd5;" horiz-adv-x="1392" d="M172 733q52 371 226.5 569.5t437.5 198.5q261 0 377.5 -197t64.5 -567q-52 -367 -224 -562t-433 -195q-264 0 -382.5 194t-66.5 559zM256 737q-47 -336 50.5 -505t328.5 -169q230 0 372 168t189 506q47 340 -48.5 510t-324.5 170q-230 0 -375 -171t-192 -509zM643 1823 q39 30 70 44.5t71 14.5t105 -25.5t106 -25.5q33 0 56 10t57 33l18 -62l-10 -6q-9 -6 -11.5 -7.5t-12 -6.5t-14 -7t-14.5 -6t-18 -6t-18.5 -4t-21.5 -3t-23 -1q-49 0 -107 25t-94 25q-21 0 -41.5 -6t-31.5 -11.5t-29 -17.5t-23 -15z" />
<glyph unicode="&#xd6;" horiz-adv-x="1392" d="M172 733q52 371 226.5 569.5t437.5 198.5q261 0 377.5 -197t64.5 -567q-52 -367 -224 -562t-433 -195q-264 0 -382.5 194t-66.5 559zM256 737q-47 -336 50.5 -505t328.5 -169q230 0 372 168t189 506q47 340 -48.5 510t-324.5 170q-230 0 -375 -171t-192 -509zM709 1747 l16 123h90l-16 -123h-90zM946 1747l17 123h90l-17 -123h-90z" />
<glyph unicode="&#xd7;" horiz-adv-x="970" d="M119 418l344 325l-254 326l59 53l254 -323l346 327l43 -53l-346 -328l256 -327l-59 -56l-256 326l-344 -326z" />
<glyph unicode="&#xd8;" horiz-adv-x="1376" d="M2 39l193 207q-74 184 -31 487q52 371 226 569.5t435 198.5q251 0 373 -184l176 188l60 -63l-195 -209q74 -196 31 -496q-50 -366 -224.5 -561.5t-435.5 -195.5q-258 0 -372 182l-179 -189zM256 737q-35 -261 10 -415l864 925q-91 168 -317 168q-459 0 -557 -678z M303 233q93 -167 324 -167q228 0 365 165.5t184 505.5q37 259 -9 422z" />
<glyph unicode="&#xd9;" horiz-adv-x="1331" d="M209 489l139 992h80l-143 -1026q-57 -398 313 -398q378 0 434 398l144 1026h73l-143 -1022q-34 -241 -162.5 -360t-355.5 -119q-232 0 -324 124t-55 385zM582 1827l39 92l417 -188l-28 -64z" />
<glyph unicode="&#xda;" horiz-adv-x="1331" d="M209 489l139 992h80l-143 -1026q-57 -398 313 -398q378 0 434 398l144 1026h73l-143 -1022q-34 -241 -162.5 -360t-355.5 -119q-232 0 -324 124t-55 385zM600 1731l469 188l12 -92l-471 -160z" />
<glyph unicode="&#xdb;" horiz-adv-x="1331" d="M209 489l139 992h80l-143 -1026q-57 -398 313 -398q378 0 434 398l144 1026h73l-143 -1022q-34 -241 -162.5 -360t-355.5 -119q-232 0 -324 124t-55 385zM580 1708l251 195h60l194 -195h-114l-121 123l-164 -123h-106z" />
<glyph unicode="&#xdc;" horiz-adv-x="1331" d="M209 489l139 992h80l-143 -1026q-57 -398 313 -398q378 0 434 398l144 1026h73l-143 -1022q-34 -241 -162.5 -360t-355.5 -119q-232 0 -324 124t-55 385zM674 1747l16 123h90l-16 -123h-90zM911 1747l17 123h90l-17 -123h-90z" />
<glyph unicode="&#xdd;" horiz-adv-x="1017" d="M154 1481h82l303 -762l510 762h81l-567 -844l-90 -637h-72l88 639zM442 1735l469 188l13 -92l-471 -160z" />
<glyph unicode="&#xde;" horiz-adv-x="1200" d="M141 0l207 1481h86l-47 -324h340q110 0 195.5 -22.5t144.5 -67.5t84.5 -118.5t11.5 -170.5q-15 -110 -61.5 -191.5t-119 -130t-160.5 -71.5t-195 -23h-351l-51 -362h-84zM287 442h350q390 0 438 336q22 159 -71 229t-289 70h-338z" />
<glyph unicode="&#xdf;" horiz-adv-x="1107" d="M127 0l139 989h-139l10 70h137q27 195 147 308.5t290 113.5q63 0 110 -16t73 -42t42.5 -60.5t17.5 -71.5t-2 -74q-4 -26 -10.5 -49.5t-18 -43.5t-20.5 -35t-28 -31t-28 -25t-33.5 -23.5t-33 -19.5t-36.5 -19.5t-35 -18.5q-50 -27 -65 -35.5t-43.5 -27t-36.5 -29 t-17 -27.5t-12 -38q-6 -48 19.5 -69.5t109.5 -51.5q107 -40 150 -66q158 -97 130 -293q-22 -157 -133.5 -246t-257.5 -89q-67 0 -138.5 19.5t-113.5 53.5l51 68q49 -34 92.5 -50t106.5 -16q130 0 214 67.5t101 186.5q8 53 -3 96t-30 70t-57.5 51.5t-68 37t-78.5 30.5 q-85 29 -114 50q-70 51 -58 149q10 72 59.5 120t161.5 105q4 2 31.5 16t34 18t29.5 18t31 22t24 23.5t23 30t15 35t11 42.5q11 86 -39.5 134t-153.5 48q-129 0 -219.5 -85.5t-112.5 -250.5l-151 -1069h-74z" />
<glyph unicode="&#xe0;" horiz-adv-x="1028" d="M76 270q25 179 142.5 260.5t361.5 90.5l225 8l14 102q18 125 -49.5 197.5t-194.5 72.5q-109 0 -194 -59.5t-115 -165.5h-80q25 122 134 212.5t270 90.5q157 0 241.5 -93.5t61.5 -252.5l-102 -733h-68l25 205q-142 -225 -400 -225q-145 0 -218 77.5t-54 212.5zM154 276 q-13 -104 45.5 -162.5t171.5 -58.5q124 0 251 91t142 196l29 207l-189 -4q-229 -4 -329 -66t-121 -203zM369 1405l39 92l417 -188l-28 -64z" />
<glyph unicode="&#xe1;" horiz-adv-x="1028" d="M76 270q25 179 142.5 260.5t361.5 90.5l225 8l14 102q18 125 -49.5 197.5t-194.5 72.5q-109 0 -194 -59.5t-115 -165.5h-80q25 122 134 212.5t270 90.5q157 0 241.5 -93.5t61.5 -252.5l-102 -733h-68l25 205q-142 -225 -400 -225q-145 0 -218 77.5t-54 212.5zM154 276 q-13 -104 45.5 -162.5t171.5 -58.5q124 0 251 91t142 196l29 207l-189 -4q-229 -4 -329 -66t-121 -203zM387 1309l469 188l12 -92l-471 -160z" />
<glyph unicode="&#xe2;" horiz-adv-x="1028" d="M76 270q25 179 142.5 260.5t361.5 90.5l225 8l14 102q18 125 -49.5 197.5t-194.5 72.5q-109 0 -194 -59.5t-115 -165.5h-80q25 122 134 212.5t270 90.5q157 0 241.5 -93.5t61.5 -252.5l-102 -733h-68l25 205q-142 -225 -400 -225q-145 0 -218 77.5t-54 212.5zM154 276 q-13 -104 45.5 -162.5t171.5 -58.5q124 0 251 91t142 196l29 207l-189 -4q-229 -4 -329 -66t-121 -203zM367 1286l251 195h60l194 -195h-114l-121 123l-164 -123h-106z" />
<glyph unicode="&#xe3;" horiz-adv-x="1028" d="M76 270q25 179 142.5 260.5t361.5 90.5l225 8l14 102q18 125 -49.5 197.5t-194.5 72.5q-109 0 -194 -59.5t-115 -165.5h-80q25 122 134 212.5t270 90.5q157 0 241.5 -93.5t61.5 -252.5l-102 -733h-68l25 205q-142 -225 -400 -225q-145 0 -218 77.5t-54 212.5zM154 276 q-13 -104 45.5 -162.5t171.5 -58.5q124 0 251 91t142 196l29 207l-189 -4q-229 -4 -329 -66t-121 -203zM395 1401q38 29 70 44t72 15t105 -25.5t106 -25.5q32 0 55 10t57 33l19 -61q-2 -1 -9 -5.5t-10 -6.5t-10.5 -6.5t-12.5 -6.5t-13 -5.5t-14.5 -5.5t-16 -5t-18 -4t-19 -2 t-21.5 -1q-49 0 -106.5 25t-93.5 25q-21 0 -41.5 -6t-31.5 -11.5t-29 -17.5t-23 -15z" />
<glyph unicode="&#xe4;" horiz-adv-x="1028" d="M76 270q25 179 142.5 260.5t361.5 90.5l225 8l14 102q18 125 -49.5 197.5t-194.5 72.5q-109 0 -194 -59.5t-115 -165.5h-80q25 122 134 212.5t270 90.5q157 0 241.5 -93.5t61.5 -252.5l-102 -733h-68l25 205q-142 -225 -400 -225q-145 0 -218 77.5t-54 212.5zM154 276 q-13 -104 45.5 -162.5t171.5 -58.5q124 0 251 91t142 196l29 207l-189 -4q-229 -4 -329 -66t-121 -203zM461 1325l16 123h90l-16 -123h-90zM698 1325l17 123h90l-17 -123h-90z" />
<glyph unicode="&#xe5;" horiz-adv-x="1028" d="M76 270q25 179 142.5 260.5t361.5 90.5l225 8l14 102q18 125 -49.5 197.5t-194.5 72.5q-109 0 -194 -59.5t-115 -165.5h-80q25 122 134 212.5t270 90.5q157 0 241.5 -93.5t61.5 -252.5l-102 -733h-68l25 205q-142 -225 -400 -225q-145 0 -218 77.5t-54 212.5zM154 276 q-13 -104 45.5 -162.5t171.5 -58.5q124 0 251 91t142 196l29 207l-189 -4q-229 -4 -329 -66t-121 -203zM453 1403q10 79 73 135.5t138 56.5q77 0 122 -56.5t33 -139.5q-10 -84 -72 -141.5t-141 -57.5q-75 0 -120 58.5t-33 144.5zM526 1399q-7 -47 20 -83t70 -36 q44 0 80.5 35.5t44.5 83.5q6 52 -20 84.5t-72 32.5q-43 0 -79.5 -33t-43.5 -84z" />
<glyph unicode="&#xe6;" horiz-adv-x="1755" d="M76 272q42 302 487 342l242 21l12 90q19 129 -44.5 202.5t-199.5 73.5q-177 0 -340 -198l-51 43q76 110 187 171.5t231 61.5q265 0 289 -239q143 239 409 239q192 0 286 -151t56 -420l-792 -2q-15 -107 19 -210.5t110.5 -172t175.5 -68.5q71 0 130 18t104 52.5t71.5 62.5 t59.5 70l51 -45q-63 -103 -180 -168t-250 -65q-64 0 -118 17t-87.5 39.5t-63.5 59.5t-43 60.5t-30 58.5q-3 8 -11 0q-31 -37 -53.5 -61t-67 -60.5t-87 -58.5t-106 -38.5t-132.5 -16.5q-143 0 -213.5 78t-50.5 214zM156 276q-14 -104 42 -164.5t171 -54.5q149 7 264.5 93.5 t132.5 203.5l29 205l-205 -16q-404 -33 -434 -267zM864 582l707 -2q16 116 -14.5 212t-103 152.5t-171.5 56.5q-154 0 -272.5 -116t-145.5 -303z" />
<glyph unicode="&#xe7;" horiz-adv-x="1017" d="M113 524q36 249 171 402t330 153q63 0 119 -18t101.5 -53.5t73.5 -95t32 -136.5l-80 -4q-13 119 -80.5 174t-167.5 55q-163 0 -277 -129.5t-145 -343.5q-30 -216 46.5 -344.5t240.5 -128.5q105 0 191 57.5t125 170.5h77q-51 -150 -155.5 -223t-231.5 -80l-49 -97 q78 -7 106 -46.5t21 -94.5q-10 -72 -67.5 -111t-135.5 -39q-81 0 -135 48l29 57q38 -45 106 -45q108 0 121 86q7 47 -24.5 70t-102.5 26q-14 0 -6 8l74 140q-177 15 -258.5 162t-48.5 380z" />
<glyph unicode="&#xe8;" horiz-adv-x="1036" d="M111 520q37 263 167.5 411t327.5 148q188 0 273.5 -134t50.5 -378l-8 -59h-736q-8 -73 -6 -139t22.5 -122.5t55 -98.5t90 -65.5t127.5 -23.5q113 0 196.5 58.5t129.5 165.5h78q-41 -104 -107 -173.5t-142.5 -99.5t-166.5 -30q-194 0 -291 142.5t-61 397.5zM201 588h655 q14 88 3.5 163.5t-40 130.5t-87.5 86t-138 31q-86 0 -157.5 -36t-119 -95.5t-76.5 -130.5t-40 -149zM385 1405l39 92l418 -188l-29 -64z" />
<glyph unicode="&#xe9;" horiz-adv-x="1036" d="M111 520q37 263 167.5 411t327.5 148q188 0 273.5 -134t50.5 -378l-8 -59h-736q-8 -73 -6 -139t22.5 -122.5t55 -98.5t90 -65.5t127.5 -23.5q113 0 196.5 58.5t129.5 165.5h78q-41 -104 -107 -173.5t-142.5 -99.5t-166.5 -30q-194 0 -291 142.5t-61 397.5zM201 588h655 q14 88 3.5 163.5t-40 130.5t-87.5 86t-138 31q-86 0 -157.5 -36t-119 -95.5t-76.5 -130.5t-40 -149zM403 1309l469 188l13 -92l-471 -160z" />
<glyph unicode="&#xea;" horiz-adv-x="1036" d="M111 520q37 263 167.5 411t327.5 148q188 0 273.5 -134t50.5 -378l-8 -59h-736q-8 -73 -6 -139t22.5 -122.5t55 -98.5t90 -65.5t127.5 -23.5q113 0 196.5 58.5t129.5 165.5h78q-41 -104 -107 -173.5t-142.5 -99.5t-166.5 -30q-194 0 -291 142.5t-61 397.5zM201 588h655 q14 88 3.5 163.5t-40 130.5t-87.5 86t-138 31q-86 0 -157.5 -36t-119 -95.5t-76.5 -130.5t-40 -149zM383 1286l252 195h59l195 -195h-115l-121 123l-164 -123h-106z" />
<glyph unicode="&#xeb;" horiz-adv-x="1036" d="M111 520q37 263 167.5 411t327.5 148q188 0 273.5 -134t50.5 -378l-8 -59h-736q-8 -73 -6 -139t22.5 -122.5t55 -98.5t90 -65.5t127.5 -23.5q113 0 196.5 58.5t129.5 165.5h78q-41 -104 -107 -173.5t-142.5 -99.5t-166.5 -30q-194 0 -291 142.5t-61 397.5zM201 588h655 q14 88 3.5 163.5t-40 130.5t-87.5 86t-138 31q-86 0 -157.5 -36t-119 -95.5t-76.5 -130.5t-40 -149zM477 1325l17 123h90l-17 -123h-90zM715 1325l16 123h90l-16 -123h-90z" />
<glyph unicode="&#xec;" horiz-adv-x="485" d="M96 1405l39 92l418 -188l-29 -64zM131 0l150 1059h73l-149 -1059h-74z" />
<glyph unicode="&#xed;" horiz-adv-x="485" d="M115 1309l469 188l12 -92l-471 -160zM131 0l150 1059h73l-149 -1059h-74z" />
<glyph unicode="&#xee;" horiz-adv-x="485" d="M94 1286l252 195h60l194 -195h-115l-120 123l-164 -123h-107zM131 0l150 1059h73l-149 -1059h-74z" />
<glyph unicode="&#xef;" horiz-adv-x="485" d="M131 0l150 1059h73l-149 -1059h-74zM188 1325l17 123h90l-16 -123h-91zM426 1325l16 123h90l-16 -123h-90z" />
<glyph unicode="&#xf0;" horiz-adv-x="1116" d="M109 504q32 233 174 383.5t329 150.5q192 0 297 -137q-60 233 -256 393l-350 -198l-27 63l322 178q-80 56 -211 117l74 49q105 -48 213 -121l221 123l20 -65l-186 -105q186 -152 247.5 -357.5t24.5 -467.5q-33 -236 -174 -383t-350 -147q-198 0 -299 146t-69 378z M186 508q-28 -190 61 -321.5t249 -131.5q157 0 279.5 130.5t148.5 322.5q18 124 -15 228.5t-109 165.5t-179 61q-104 0 -198.5 -61t-157 -165t-79.5 -229z" />
<glyph unicode="&#xf1;" horiz-adv-x="1114" d="M121 0l147 1059h68l-21 -158q49 78 143.5 128t209.5 50q154 0 233 -99t51 -294l-96 -686h-74l99 686q21 151 -39 233t-185 82q-139 0 -240.5 -67.5t-119.5 -196.5l-104 -737h-72zM465 1401q39 30 70 44.5t71 14.5t105 -25.5t106 -25.5q33 0 56 10t57 33l18 -61 q-1 -1 -11 -7t-13.5 -8l-14 -8t-16.5 -8t-17.5 -6t-21.5 -6t-23 -3.5t-26 -1.5q-49 0 -107 25t-94 25q-21 0 -41.5 -6t-31.5 -11.5t-29 -17.5t-23 -15z" />
<glyph unicode="&#xf2;" horiz-adv-x="1064" d="M113 522q36 250 169.5 403.5t331.5 153.5q194 0 283 -152.5t55 -400.5t-165.5 -397t-329.5 -149q-199 0 -288.5 148t-55.5 394zM190 526q-30 -216 42 -343.5t239 -127.5q166 0 269.5 126t133.5 345q32 219 -37.5 347t-234.5 128t-272.5 -128.5t-139.5 -346.5zM393 1405 l39 92l418 -188l-29 -64z" />
<glyph unicode="&#xf3;" horiz-adv-x="1064" d="M113 522q36 250 169.5 403.5t331.5 153.5q194 0 283 -152.5t55 -400.5t-165.5 -397t-329.5 -149q-199 0 -288.5 148t-55.5 394zM190 526q-30 -216 42 -343.5t239 -127.5q166 0 269.5 126t133.5 345q32 219 -37.5 347t-234.5 128t-272.5 -128.5t-139.5 -346.5zM412 1309 l469 188l12 -92l-471 -160z" />
<glyph unicode="&#xf4;" horiz-adv-x="1064" d="M113 522q36 250 169.5 403.5t331.5 153.5q194 0 283 -152.5t55 -400.5t-165.5 -397t-329.5 -149q-199 0 -288.5 148t-55.5 394zM190 526q-30 -216 42 -343.5t239 -127.5q166 0 269.5 126t133.5 345q32 219 -37.5 347t-234.5 128t-272.5 -128.5t-139.5 -346.5zM391 1286 l252 195h59l195 -195h-115l-120 123l-164 -123h-107z" />
<glyph unicode="&#xf5;" horiz-adv-x="1064" d="M113 522q36 250 169.5 403.5t331.5 153.5q194 0 283 -152.5t55 -400.5t-165.5 -397t-329.5 -149q-199 0 -288.5 148t-55.5 394zM190 526q-30 -216 42 -343.5t239 -127.5q166 0 269.5 126t133.5 345q32 219 -37.5 347t-234.5 128t-272.5 -128.5t-139.5 -346.5zM420 1401 q39 30 70 44.5t71 14.5t105 -25.5t106 -25.5q33 0 56 10t57 33l18 -61q-1 -1 -11 -7t-13.5 -8l-14 -8t-16.5 -8t-17.5 -6t-21.5 -6t-23 -3.5t-26 -1.5q-49 0 -107 25t-94 25q-21 0 -41.5 -6t-31.5 -11.5t-29 -17.5t-23 -15z" />
<glyph unicode="&#xf6;" horiz-adv-x="1064" d="M113 522q36 250 169.5 403.5t331.5 153.5q194 0 283 -152.5t55 -400.5t-165.5 -397t-329.5 -149q-199 0 -288.5 148t-55.5 394zM190 526q-30 -216 42 -343.5t239 -127.5q166 0 269.5 126t133.5 345q32 219 -37.5 347t-234.5 128t-272.5 -128.5t-139.5 -346.5zM485 1325 l17 123h90l-17 -123h-90zM723 1325l16 123h90l-16 -123h-90z" />
<glyph unicode="&#xf7;" horiz-adv-x="1003" d="M158 705l10 75l737 2l-10 -75zM401 348l23 158h149l-20 -158h-152zM492 983l20 158h152l-23 -158h-149z" />
<glyph unicode="&#xf8;" horiz-adv-x="1011" d="M-37 49l111 109q-69 145 -39 364q36 250 170 403.5t332 153.5q206 0 294 -174l162 158l56 -57l-187 -183q37 -123 12 -297q-34 -248 -165.5 -397t-329.5 -149q-172 0 -262 110l-99 -98zM113 526q-25 -189 24 -307l635 627q-68 155 -248 155q-165 0 -272 -128.5 t-139 -346.5zM178 150q73 -95 215 -95q166 0 270 126.5t134 344.5q18 129 2 232z" />
<glyph unicode="&#xf9;" horiz-adv-x="1105" d="M160 356l100 707h74l-101 -707q-9 -67 2 -120t36.5 -85.5t62 -54t73 -29.5t74.5 -8q123 0 222.5 80.5t121.5 233.5l99 690h71l-147 -1061h-68l21 195q-39 -96 -129.5 -156t-196.5 -59q-52 1 -99 12t-92.5 38.5t-76.5 69t-44.5 107t-2.5 147.5zM408 1405l38 92l418 -188 l-28 -64z" />
<glyph unicode="&#xfa;" horiz-adv-x="1105" d="M160 356l100 707h74l-101 -707q-9 -67 2 -120t36.5 -85.5t62 -54t73 -29.5t74.5 -8q123 0 222.5 80.5t121.5 233.5l99 690h71l-147 -1061h-68l21 195q-39 -96 -129.5 -156t-196.5 -59q-52 1 -99 12t-92.5 38.5t-76.5 69t-44.5 107t-2.5 147.5zM426 1309l469 188l12 -92 l-471 -160z" />
<glyph unicode="&#xfb;" horiz-adv-x="1105" d="M160 356l100 707h74l-101 -707q-9 -67 2 -120t36.5 -85.5t62 -54t73 -29.5t74.5 -8q123 0 222.5 80.5t121.5 233.5l99 690h71l-147 -1061h-68l21 195q-39 -96 -129.5 -156t-196.5 -59q-52 1 -99 12t-92.5 38.5t-76.5 69t-44.5 107t-2.5 147.5zM406 1286l251 195h60 l194 -195h-114l-121 123l-164 -123h-106z" />
<glyph unicode="&#xfc;" horiz-adv-x="1105" d="M160 356l100 707h74l-101 -707q-9 -67 2 -120t36.5 -85.5t62 -54t73 -29.5t74.5 -8q123 0 222.5 80.5t121.5 233.5l99 690h71l-147 -1061h-68l21 195q-39 -96 -129.5 -156t-196.5 -59q-52 1 -99 12t-92.5 38.5t-76.5 69t-44.5 107t-2.5 147.5zM500 1325l16 123h90 l-16 -123h-90zM737 1325l17 123h90l-17 -123h-90z" />
<glyph unicode="&#xfd;" horiz-adv-x="970" d="M-18 -322l8 56h104q84 0 134 34.5t81 96.5l70 141l-234 1053h80l209 -944l467 944h72l-596 -1213q-94 -184 -281 -184q-42 0 -70.5 4t-35.5 8zM365 1309l469 188l12 -92l-471 -160z" />
<glyph unicode="&#xfe;" horiz-adv-x="1118" d="M74 -330l254 1811h69l-80 -580q1 1 12.5 14t17.5 19.5t21 21.5t26.5 24.5t31 24t37 23.5t41 19.5t47 17t52.5 10.5t59 4q185 0 283 -137t63 -393t-178 -412.5t-343 -156.5q-158 0 -258 100q-12 13 -17.5 10t-8.5 -24l-56 -396h-73zM223 207q126 -152 273 -152 q161 0 281.5 131.5t152.5 354.5q16 115 -0.5 205t-59 144.5t-100.5 82.5t-129 28q-129 0 -230 -88.5t-116 -185.5z" />
<glyph unicode="&#xff;" horiz-adv-x="970" d="M-18 -322l8 56h104q84 0 134 34.5t81 96.5l70 141l-234 1053h80l209 -944l467 944h72l-596 -1213q-94 -184 -281 -184q-42 0 -70.5 4t-35.5 8zM438 1325l17 123h90l-17 -123h-90zM676 1325l16 123h90l-16 -123h-90z" />
<glyph unicode="&#x152;" horiz-adv-x="2111" d="M172 733q53 371 228 569.5t436 198.5q162 0 269.5 -76.5t154.5 -226.5l38 283h775l-11 -80h-690l-86 -613h541l-10 -79h-541l-90 -629h719l-13 -80h-800l38 281q-180 -301 -509 -301q-263 0 -382 194t-67 559zM262 737q-47 -337 48.5 -505.5t326.5 -168.5q456 0 549 674 q98 680 -361 680q-230 0 -373 -170.5t-190 -509.5z" />
<glyph unicode="&#x153;" horiz-adv-x="1904" d="M113 522q35 249 180 403t346 154q135 0 226.5 -72.5t127.5 -203.5q9 -28 25 0q68 128 181.5 202t244.5 74q202 0 292.5 -151.5t53.5 -419.5h-789q-17 -121 18 -225t111.5 -165t176.5 -61q223 0 358 201l55 -45q-163 -233 -426 -233q-131 0 -223 68.5t-131 191.5 q-3 13 -7.5 17t-11 -2t-16.5 -22q-73 -121 -182 -187t-240 -66q-203 0 -303.5 148.5t-66.5 393.5zM190 526q-29 -211 56 -340t252 -129t284 128t148 341q29 212 -54 342.5t-247 130.5q-167 0 -287.5 -130t-151.5 -343zM1016 582l708 -2q25 179 -54.5 299t-231.5 120 q-160 0 -278.5 -117.5t-143.5 -299.5z" />
<glyph unicode="&#x178;" horiz-adv-x="1017" d="M154 1481h82l303 -762l510 762h81l-567 -844l-90 -637h-72l88 639zM516 1751l16 123h91l-17 -123h-90zM754 1751l16 123h90l-16 -123h-90z" />
<glyph unicode="&#x2c6;" horiz-adv-x="509" d="M109 1286l251 195h60l194 -195h-114l-121 123l-164 -123h-106z" />
<glyph unicode="&#x2dc;" horiz-adv-x="518" d="M139 1401q38 29 70 44t72 15t105 -25.5t106 -25.5q32 0 55 10t57 33l19 -61q-2 -1 -9 -5.5t-10 -6.5t-10.5 -6.5t-12.5 -6.5t-13 -5.5t-14.5 -5.5t-16 -5t-18 -4t-19 -2t-21.5 -1q-49 0 -106.5 25t-93.5 25q-21 0 -41.5 -6t-31.5 -11.5t-29 -17.5t-23 -15z" />
<glyph unicode="&#x2000;" horiz-adv-x="1008" />
<glyph unicode="&#x2001;" horiz-adv-x="2017" />
<glyph unicode="&#x2002;" horiz-adv-x="1008" />
<glyph unicode="&#x2003;" horiz-adv-x="2017" />
<glyph unicode="&#x2004;" horiz-adv-x="672" />
<glyph unicode="&#x2005;" horiz-adv-x="504" />
<glyph unicode="&#x2006;" horiz-adv-x="336" />
<glyph unicode="&#x2007;" horiz-adv-x="336" />
<glyph unicode="&#x2008;" horiz-adv-x="252" />
<glyph unicode="&#x2009;" horiz-adv-x="403" />
<glyph unicode="&#x200a;" horiz-adv-x="112" />
<glyph unicode="&#x2010;" horiz-adv-x="710" d="M129 489l10 80l443 2l-11 -79z" />
<glyph unicode="&#x2011;" horiz-adv-x="710" d="M129 489l10 80l443 2l-11 -79z" />
<glyph unicode="&#x2012;" horiz-adv-x="710" d="M129 489l10 80l443 2l-11 -79z" />
<glyph unicode="&#x2013;" horiz-adv-x="1003" d="M127 477l10 80l737 2l-10 -80z" />
<glyph unicode="&#x2014;" horiz-adv-x="1593" d="M125 477l12 80l1327 2l-12 -80z" />
<glyph unicode="&#x2018;" horiz-adv-x="425" d="M152 1157v139l141 252h65l-108 -229h72v-162h-170z" />
<glyph unicode="&#x2019;" horiz-adv-x="362" d="M199 1090l108 229h-71v162h170v-140l-142 -251h-65z" />
<glyph unicode="&#x201a;" horiz-adv-x="405" d="M-25 -227l131 227h-67l22 164h158l-18 -139l-164 -252h-62z" />
<glyph unicode="&#x201c;" horiz-adv-x="718" d="M242 1090v141l143 250h66l-111 -228h72v-163h-170zM535 1090v141l141 250h65l-110 -228h74v-163h-170z" />
<glyph unicode="&#x201d;" horiz-adv-x="653" d="M199 1090l108 229h-71v162h170v-140l-142 -251h-65zM489 1090l111 229h-72v162h168v-140l-141 -251h-66z" />
<glyph unicode="&#x201e;" horiz-adv-x="704" d="M-25 -227l131 227h-67l22 164h158l-18 -139l-164 -252h-62zM274 -227l132 227h-68l22 164h158l-18 -139l-164 -252h-62z" />
<glyph unicode="&#x2022;" horiz-adv-x="575" d="M176 754q0 60 41.5 101.5t101.5 41.5t102 -41.5t42 -101.5t-42 -103t-102 -43t-101.5 43t-41.5 103z" />
<glyph unicode="&#x2026;" horiz-adv-x="1314" d="M49 0l23 158h114l-22 -158h-115zM520 0l23 158h114l-22 -158h-115zM991 0l23 158h114l-22 -158h-115z" />
<glyph unicode="&#x202f;" horiz-adv-x="403" />
<glyph unicode="&#x2039;" horiz-adv-x="477" d="M59 514l326 375h51l-278 -375l172 -358h-51z" />
<glyph unicode="&#x203a;" horiz-adv-x="477" d="M45 156l272 358l-174 375h52l219 -375l-322 -358h-47z" />
<glyph unicode="&#x205f;" horiz-adv-x="504" />
<glyph unicode="&#x20ac;" horiz-adv-x="1032" d="M-39 547l10 76h164q3 52 12 112q8 63 25 131h-166l10 76h174q75 267 234 413t377 146q151 0 272 -100l-63 -78q-95 92 -217 92q-186 0 -316 -120t-196 -353l430 2l-11 -76l-438 -2q-15 -63 -24 -131q-11 -70 -13 -112l441 2l-11 -76l-432 -2q-2 -236 97 -358.5 t298 -122.5q129 0 244 75l35 -69q-145 -92 -297 -92q-230 0 -350 146.5t-117 420.5h-172z" />
<glyph unicode="&#x2122;" horiz-adv-x="1720" d="M59 874l7 52h606l-6 -52h-269l-123 -874h-47l123 874h-291zM756 0l129 926h53l197 -869l446 869h49l-129 -926h-51l111 788l-400 -788h-67l-179 778l-108 -778h-51z" />
<glyph unicode="&#x25fc;" horiz-adv-x="1054" d="M0 0v1055h1055v-1055h-1055z" />
</font>
</defs>
</svg>
